<svg xmlns="http://www.w3.org/2000/svg" xmlns:xlink="http://www.w3.org/1999/xlink" contentStyleType="text/css" height="701px" preserveAspectRatio="none" style="width:1085px;height:701px;background:#FFFFFF;" version="1.1" viewBox="0 0 1085 701" width="1085px" zoomAndPan="magnify"><title>Scenario 1: Player Connect &amp; Matchmaking</title><defs/><g><text fill="#000000" font-family="sans-serif" font-size="14" font-weight="bold" lengthAdjust="spacing" textLength="299.8088" x="393.8978" y="29.9659">Scenario 1: Player Connect &amp; Matchmaking</text><rect fill="none" height="195.218" style="stroke:#000000;stroke-width:1.5;" width="1068.6045" x="10" y="432.2639"/><line style="stroke:#181818;stroke-width:0.5;stroke-dasharray:5.0,5.0;" x1="62" x2="62" y1="98.2038" y2="644.4819"/><line style="stroke:#181818;stroke-width:0.5;stroke-dasharray:5.0,5.0;" x1="300.2752" x2="300.2752" y1="98.2038" y2="644.4819"/><line style="stroke:#181818;stroke-width:0.5;stroke-dasharray:5.0,5.0;" x1="421.0709" x2="421.0709" y1="98.2038" y2="644.4819"/><line style="stroke:#181818;stroke-width:0.5;stroke-dasharray:5.0,5.0;" x1="704.1056" x2="704.1056" y1="98.2038" y2="644.4819"/><line style="stroke:#181818;stroke-width:0.5;stroke-dasharray:5.0,5.0;" x1="827.4551" x2="827.4551" y1="98.2038" y2="644.4819"/><line style="stroke:#181818;stroke-width:0.5;stroke-dasharray:5.0,5.0;" x1="1023.8588" x2="1023.8588" y1="98.2038" y2="644.4819"/><rect fill="#E2E2F0" height="33.0679" rx="2.5" ry="2.5" style="stroke:#181818;stroke-width:0.5;" width="84.8397" x="20" y="64.1358"/><text fill="#000000" font-family="sans-serif" font-size="14" lengthAdjust="spacing" textLength="70.8397" x="27" y="86.1018">Web Client</text><rect fill="#E2E2F0" height="33.0679" rx="2.5" ry="2.5" style="stroke:#181818;stroke-width:0.5;" width="84.8397" x="20" y="643.4819"/><text fill="#000000" font-family="sans-serif" font-size="14" lengthAdjust="spacing" textLength="70.8397" x="27" y="665.4478">Web Client</text><rect fill="#E2E2F0" height="52.1358" rx="2.5" ry="2.5" style="stroke:#181818;stroke-width:0.5;" width="96.7957" x="252.2752" y="45.0679"/><text fill="#000000" font-family="sans-serif" font-size="14" lengthAdjust="spacing" textLength="82.7957" x="259.2752" y="67.0339">API Gateway</text><text fill="#000000" font-family="sans-serif" font-size="14" lengthAdjust="spacing" textLength="81.2277" x="260.0592" y="86.1018">(WebSocket)</text><rect fill="#E2E2F0" height="52.1358" rx="2.5" ry="2.5" style="stroke:#181818;stroke-width:0.5;" width="96.7957" x="252.2752" y="643.4819"/><text fill="#000000" font-family="sans-serif" font-size="14" lengthAdjust="spacing" textLength="82.7957" x="259.2752" y="665.4478">API Gateway</text><text fill="#000000" font-family="sans-serif" font-size="14" lengthAdjust="spacing" textLength="81.2277" x="260.0592" y="684.5158">(WebSocket)</text><rect fill="#E2E2F0" height="33.0679" rx="2.5" ry="2.5" style="stroke:#181818;stroke-width:0.5;" width="125.3696" x="359.0709" y="64.1358"/><text fill="#000000" font-family="sans-serif" font-size="14" lengthAdjust="spacing" textLength="111.3696" x="366.0709" y="86.1018">ConnectFunction</text><rect fill="#E2E2F0" height="33.0679" rx="2.5" ry="2.5" style="stroke:#181818;stroke-width:0.5;" width="125.3696" x="359.0709" y="643.4819"/><text fill="#000000" font-family="sans-serif" font-size="14" lengthAdjust="spacing" textLength="111.3696" x="366.0709" y="665.4478">ConnectFunction</text><rect fill="#E2E2F0" height="33.0679" rx="2.5" ry="2.5" style="stroke:#181818;stroke-width:0.5;" width="161.3494" x="624.1056" y="64.1358"/><text fill="#000000" font-family="sans-serif" font-size="14" lengthAdjust="spacing" textLength="147.3494" x="631.1056" y="86.1018">MatchmakingFunction</text><rect fill="#E2E2F0" height="33.0679" rx="2.5" ry="2.5" style="stroke:#181818;stroke-width:0.5;" width="161.3494" x="624.1056" y="643.4819"/><text fill="#000000" font-family="sans-serif" font-size="14" lengthAdjust="spacing" textLength="147.3494" x="631.1056" y="665.4478">MatchmakingFunction</text><rect fill="#E2E2F0" height="33.0679" rx="2.5" ry="2.5" style="stroke:#181818;stroke-width:0.5;" width="65.7158" x="795.4551" y="64.1358"/><text fill="#000000" font-family="sans-serif" font-size="14" lengthAdjust="spacing" textLength="51.7158" x="802.4551" y="86.1018">Cognito</text><rect fill="#E2E2F0" height="33.0679" rx="2.5" ry="2.5" style="stroke:#181818;stroke-width:0.5;" width="65.7158" x="795.4551" y="643.4819"/><text fill="#000000" font-family="sans-serif" font-size="14" lengthAdjust="spacing" textLength="51.7158" x="802.4551" y="665.4478">Cognito</text><rect fill="#E2E2F0" height="33.0679" rx="2.5" ry="2.5" style="stroke:#181818;stroke-width:0.5;" width="88.7457" x="979.8588" y="64.1358"/><text fill="#000000" font-family="sans-serif" font-size="14" lengthAdjust="spacing" textLength="74.7457" x="986.8588" y="86.1018">DynamoDB</text><rect fill="#E2E2F0" height="33.0679" rx="2.5" ry="2.5" style="stroke:#181818;stroke-width:0.5;" width="88.7457" x="979.8588" y="643.4819"/><text fill="#000000" font-family="sans-serif" font-size="14" lengthAdjust="spacing" textLength="74.7457" x="986.8588" y="665.4478">DynamoDB</text><polygon fill="#181818" points="288.6731,127.9098,298.6731,131.9098,288.6731,135.9098,292.6731,131.9098" style="stroke:#181818;stroke-width:1;"/><line style="stroke:#181818;stroke-width:1;" x1="62.4199" x2="294.6731" y1="131.9098" y2="131.9098"/><text fill="#000000" font-family="sans-serif" font-size="13" lengthAdjust="spacing" textLength="214.2532" x="69.4199" y="126.1008">wss:// connect (JWT in query string)</text><polygon fill="#181818" points="409.7557,159.6158,419.7557,163.6158,409.7557,167.6158,413.7557,163.6158" style="stroke:#181818;stroke-width:1;"/><line style="stroke:#181818;stroke-width:1;" x1="300.6731" x2="415.7557" y1="163.6158" y2="163.6158"/><text fill="#000000" font-family="sans-serif" font-size="13" lengthAdjust="spacing" textLength="93.2491" x="307.6731" y="157.8068">$connect event</text><polygon fill="#181818" points="816.313,191.3218,826.313,195.3218,816.313,199.3218,820.313,195.3218" style="stroke:#181818;stroke-width:1;"/><line style="stroke:#181818;stroke-width:1;" x1="421.7557" x2="822.313" y1="195.3218" y2="195.3218"/><text fill="#000000" font-family="sans-serif" font-size="13" lengthAdjust="spacing" textLength="74.1651" x="428.7557" y="189.5128">validate JWT</text><polygon fill="#181818" points="432.7557,223.0278,422.7557,227.0278,432.7557,231.0278,428.7557,227.0278" style="stroke:#181818;stroke-width:1;"/><line style="stroke:#181818;stroke-width:1;stroke-dasharray:2.0,2.0;" x1="426.7557" x2="827.313" y1="227.0278" y2="227.0278"/><text fill="#000000" font-family="sans-serif" font-size="13" lengthAdjust="spacing" textLength="100.1781" x="438.7557" y="221.2188">claims (playerId)</text><polygon fill="#181818" points="1012.2316,254.7338,1022.2316,258.7338,1012.2316,262.7338,1016.2316,258.7338" style="stroke:#181818;stroke-width:1;"/><line style="stroke:#181818;stroke-width:1;" x1="421.7557" x2="1018.2316" y1="258.7338" y2="258.7338"/><text fill="#000000" font-family="sans-serif" font-size="13" lengthAdjust="spacing" textLength="233.0512" x="428.7557" y="252.9248">put CONN#&lt;connectionId&gt; &#8594; playerId</text><polygon fill="#181818" points="311.6731,286.4398,301.6731,290.4398,311.6731,294.4398,307.6731,290.4398" style="stroke:#181818;stroke-width:1;"/><line style="stroke:#181818;stroke-width:1;stroke-dasharray:2.0,2.0;" x1="305.6731" x2="420.7557" y1="290.4398" y2="290.4398"/><text fill="#000000" font-family="sans-serif" font-size="13" lengthAdjust="spacing" textLength="57.6421" x="317.6731" y="284.6308">HTTP 200</text><polygon fill="#181818" points="288.6731,318.1459,298.6731,322.1459,288.6731,326.1459,292.6731,322.1459" style="stroke:#181818;stroke-width:1;"/><line style="stroke:#181818;stroke-width:1;" x1="62.4199" x2="294.6731" y1="322.1459" y2="322.1459"/><text fill="#000000" font-family="sans-serif" font-size="13" lengthAdjust="spacing" textLength="135.5511" x="69.4199" y="316.3369">{"action":"joinQueue"}</text><polygon fill="#181818" points="692.7803,349.8519,702.7803,353.8519,692.7803,357.8519,696.7803,353.8519" style="stroke:#181818;stroke-width:1;"/><line style="stroke:#181818;stroke-width:1;" x1="300.6731" x2="698.7803" y1="353.8519" y2="353.8519"/><text fill="#000000" font-family="sans-serif" font-size="13" lengthAdjust="spacing" textLength="100.8671" x="307.6731" y="348.0429">joinQueue event</text><polygon fill="#181818" points="1012.2316,381.5579,1022.2316,385.5579,1012.2316,389.5579,1016.2316,385.5579" style="stroke:#181818;stroke-width:1;"/><line style="stroke:#181818;stroke-width:1;" x1="704.7803" x2="1018.2316" y1="385.5579" y2="385.5579"/><text fill="#000000" font-family="sans-serif" font-size="13" lengthAdjust="spacing" textLength="198.6142" x="711.7803" y="379.7489">put QUEUE / PLAYER#&lt;playerId&gt;</text><polygon fill="#181818" points="1012.2316,413.2639,1022.2316,417.2639,1012.2316,421.2639,1016.2316,417.2639" style="stroke:#181818;stroke-width:1;"/><line style="stroke:#181818;stroke-width:1;" x1="704.7803" x2="1018.2316" y1="417.2639" y2="417.2639"/><text fill="#000000" font-family="sans-serif" font-size="13" lengthAdjust="spacing" textLength="215.6572" x="711.7803" y="411.4549">scan QUEUE (looking for opponent)</text><path d="M10,432.2639 L72.459,432.2639 L72.459,441.9699 L62.459,451.9699 L10,451.9699 L10,432.2639 " fill="#EEEEEE" style="stroke:#000000;stroke-width:1.5;"/><rect fill="none" height="195.218" style="stroke:#000000;stroke-width:1.5;" width="1068.6045" x="10" y="432.2639"/><text fill="#000000" font-family="sans-serif" font-size="13" font-weight="bold" lengthAdjust="spacing" textLength="17.459" x="25" y="447.1609">alt</text><text fill="#000000" font-family="sans-serif" font-size="11" font-weight="bold" lengthAdjust="spacing" textLength="122.0441" x="87.459" y="446.0228">[no opponent waiting]</text><polygon fill="#181818" points="73.4199,471.6759,63.4199,475.6759,73.4199,479.6759,69.4199,475.6759" style="stroke:#181818;stroke-width:1;"/><line style="stroke:#181818;stroke-width:1;stroke-dasharray:2.0,2.0;" x1="67.4199" x2="703.7803" y1="475.6759" y2="475.6759"/><text fill="#000000" font-family="sans-serif" font-size="13" lengthAdjust="spacing" textLength="116.6881" x="79.4199" y="469.8669">{"status":"waiting"}</text><line style="stroke:#000000;stroke-width:1;stroke-dasharray:2.0,2.0;" x1="10" x2="1078.6045" y1="484.6759" y2="484.6759"/><text fill="#000000" font-family="sans-serif" font-size="11" font-weight="bold" lengthAdjust="spacing" textLength="95.8973" x="15" y="496.4349">[opponent found]</text><polygon fill="#181818" points="1012.2316,520.3639,1022.2316,524.3639,1012.2316,528.3639,1016.2316,524.3639" style="stroke:#181818;stroke-width:1;"/><line style="stroke:#181818;stroke-width:1;" x1="704.7803" x2="1018.2316" y1="524.3639" y2="524.3639"/><text fill="#000000" font-family="sans-serif" font-size="13" lengthAdjust="spacing" textLength="162.7212" x="711.7803" y="518.5549">delete both QUEUE entries</text><polygon fill="#181818" points="1012.2316,552.0699,1022.2316,556.0699,1012.2316,560.0699,1016.2316,556.0699" style="stroke:#181818;stroke-width:1;"/><line style="stroke:#181818;stroke-width:1;" x1="704.7803" x2="1018.2316" y1="556.0699" y2="556.0699"/><text fill="#000000" font-family="sans-serif" font-size="13" lengthAdjust="spacing" textLength="295.4513" x="711.7803" y="550.2609">put GAME#&lt;gameId&gt; / STATE (initial GameState)</text><polygon fill="#181818" points="311.6731,583.7759,301.6731,587.7759,311.6731,591.7759,307.6731,587.7759" style="stroke:#181818;stroke-width:1;"/><line style="stroke:#181818;stroke-width:1;" x1="305.6731" x2="703.7803" y1="587.7759" y2="587.7759"/><text fill="#000000" font-family="sans-serif" font-size="13" lengthAdjust="spacing" textLength="380.1073" x="317.6731" y="581.9669">postToConnection(player1) &#8594; {"status":"matched", gameState}</text><polygon fill="#181818" points="311.6731,615.4819,301.6731,619.4819,311.6731,623.4819,307.6731,619.4819" style="stroke:#181818;stroke-width:1;"/><line style="stroke:#181818;stroke-width:1;" x1="305.6731" x2="703.7803" y1="619.4819" y2="619.4819"/><text fill="#000000" font-family="sans-serif" font-size="13" lengthAdjust="spacing" textLength="380.1073" x="317.6731" y="613.6729">postToConnection(player2) &#8594; {"status":"matched", gameState}</text><!--SRC=[bLDTJzim57tFhxXAqTH8GmKUewfILmhhD5XPWz2alLoII_1mx2o-eQeGh_i1-udx9NESf4sw3y6ROvzpVCwv3WkM1AkO51P2mt48IuaRAc2cbQAOuGrS8CVt6Ju8bNfUZWMBMEIe6FmRkeMP5AJO1pGGksKVCbqku1oPrhZvgeQMiDBn0t7W29YBTDt7DzUUbIfceLMjM-_rWHrNFN3MSRkdd2h1kb5qwpxWTACmqwVl729n7vvNPuB3IMqMGbWR4uv6hIaOVhY9G2ZuNbAn0SE5lJZmQh1bjR0G3jebFLOjjLyEuznOp2DAaTYsm8fwxVPXJoQMA383mzoDQP44NQNQjKNb9SFiq-NbODoSsdeMoGH-_VW9BND7xAHx7qLBE3aw-blo9n_hdaF_cnRgggII_ETTraxr5hs5D86xf_jMhwxdrtCOmVBZzClyys3SMfpyasLYL0rjABLsvtUw09tdMjdh0iz3oQ3qTWVMABXw5T0pwjgjerO93IENnYPiq3OVIKCxbJjTgcHVesCi8KbsWBUQxnj_bbK8Cl_XL1MSJo_cWt6A6LLp6i4gcaOscx1FGA2q_r16A-kDWZzrsldasd2aPzk1Ds_aE71ZxsHpV4hyjv2sii-lbZrvcIofv3S0]--></g></svg>