<svg xmlns="http://www.w3.org/2000/svg" xmlns:xlink="http://www.w3.org/1999/xlink" contentStyleType="text/css" height="671px" preserveAspectRatio="none" style="width:1261px;height:671px;background:#FFFFFF;" version="1.1" viewBox="0 0 1261 671" width="1261px" zoomAndPan="magnify"><title>Scenario 2: Play Card</title><defs/><g><text fill="#000000" font-family="sans-serif" font-size="14" font-weight="bold" lengthAdjust="spacing" textLength="145.1234" x="558.9904" y="29.9659">Scenario 2: Play Card</text><rect fill="none" height="324.0421" style="stroke:#000000;stroke-width:1.5;" width="1024.7731" x="229.3311" y="273.7338"/><rect fill="none" height="83.118" style="stroke:#000000;stroke-width:1.5;" width="552.066" x="239.3311" y="507.6578"/><line style="stroke:#181818;stroke-width:0.5;stroke-dasharray:5.0,5.0;" x1="57" x2="57" y1="98.2038" y2="614.7759"/><line style="stroke:#181818;stroke-width:0.5;stroke-dasharray:5.0,5.0;" x1="297.3311" x2="297.3311" y1="98.2038" y2="614.7759"/><line style="stroke:#181818;stroke-width:0.5;stroke-dasharray:5.0,5.0;" x1="716.1496" x2="716.1496" y1="98.2038" y2="614.7759"/><line style="stroke:#181818;stroke-width:0.5;stroke-dasharray:5.0,5.0;" x1="1099.1128" x2="1099.1128" y1="98.2038" y2="614.7759"/><line style="stroke:#181818;stroke-width:0.5;stroke-dasharray:5.0,5.0;" x1="1199.3585" x2="1199.3585" y1="98.2038" y2="614.7759"/><rect fill="#E2E2F0" height="52.1358" rx="2.5" ry="2.5" style="stroke:#181818;stroke-width:0.5;" width="105.1816" x="5" y="45.0679"/><text fill="#000000" font-family="sans-serif" font-size="14" lengthAdjust="spacing" textLength="70.8397" x="22.171" y="67.0339">Web Client</text><text fill="#000000" font-family="sans-serif" font-size="14" lengthAdjust="spacing" textLength="91.1816" x="12" y="86.1018">(active player)</text><rect fill="#E2E2F0" height="52.1358" rx="2.5" ry="2.5" style="stroke:#181818;stroke-width:0.5;" width="105.1816" x="5" y="613.7759"/><text fill="#000000" font-family="sans-serif" font-size="14" lengthAdjust="spacing" textLength="70.8397" x="22.171" y="635.7418">Web Client</text><text fill="#000000" font-family="sans-serif" font-size="14" lengthAdjust="spacing" textLength="91.1816" x="12" y="654.8097">(active player)</text><rect fill="#E2E2F0" height="33.0679" rx="2.5" ry="2.5" style="stroke:#181818;stroke-width:0.5;" width="96.7957" x="249.3311" y="64.1358"/><text fill="#000000" font-family="sans-serif" font-size="14" lengthAdjust="spacing" textLength="82.7957" x="256.3311" y="86.1018">API Gateway</text><rect fill="#E2E2F0" height="33.0679" rx="2.5" ry="2.5" style="stroke:#181818;stroke-width:0.5;" width="96.7957" x="249.3311" y="613.7759"/><text fill="#000000" font-family="sans-serif" font-size="14" lengthAdjust="spacing" textLength="82.7957" x="256.3311" y="635.7418">API Gateway</text><rect fill="#E2E2F0" height="33.0679" rx="2.5" ry="2.5" style="stroke:#181818;stroke-width:0.5;" width="129.2476" x="652.1496" y="64.1358"/><text fill="#000000" font-family="sans-serif" font-size="14" lengthAdjust="spacing" textLength="115.2476" x="659.1496" y="86.1018">PlayCardFunction</text><rect fill="#E2E2F0" height="33.0679" rx="2.5" ry="2.5" style="stroke:#181818;stroke-width:0.5;" width="129.2476" x="652.1496" y="613.7759"/><text fill="#000000" font-family="sans-serif" font-size="14" lengthAdjust="spacing" textLength="115.2476" x="659.1496" y="635.7418">PlayCardFunction</text><rect fill="#E2E2F0" height="33.0679" rx="2.5" ry="2.5" style="stroke:#181818;stroke-width:0.5;" width="92.2457" x="1053.1128" y="64.1358"/><text fill="#000000" font-family="sans-serif" font-size="14" lengthAdjust="spacing" textLength="78.2457" x="1060.1128" y="86.1018">Game Rules</text><rect fill="#E2E2F0" height="33.0679" rx="2.5" ry="2.5" style="stroke:#181818;stroke-width:0.5;" width="92.2457" x="1053.1128" y="613.7759"/><text fill="#000000" font-family="sans-serif" font-size="14" lengthAdjust="spacing" textLength="78.2457" x="1060.1128" y="635.7418">Game Rules</text><rect fill="#E2E2F0" height="33.0679" rx="2.5" ry="2.5" style="stroke:#181818;stroke-width:0.5;" width="88.7457" x="1155.3585" y="64.1358"/><text fill="#000000" font-family="sans-serif" font-size="14" lengthAdjust="spacing" textLength="74.7457" x="1162.3585" y="86.1018">DynamoDB</text><rect fill="#E2E2F0" height="33.0679" rx="2.5" ry="2.5" style="stroke:#181818;stroke-width:0.5;" width="88.7457" x="1155.3585" y="613.7759"/><text fill="#000000" font-family="sans-serif" font-size="14" lengthAdjust="spacing" textLength="74.7457" x="1162.3585" y="635.7418">DynamoDB</text><polygon fill="#181818" points="285.729,127.9098,295.729,131.9098,285.729,135.9098,289.729,131.9098" style="stroke:#181818;stroke-width:1;"/><line style="stroke:#181818;stroke-width:1;" x1="57.5908" x2="291.729" y1="131.9098" y2="131.9098"/><text fill="#000000" font-family="sans-serif" font-size="13" lengthAdjust="spacing" textLength="216.1382" x="64.5908" y="126.1008">{"action":"playCard", "cardIndex":2}</text><polygon fill="#181818" points="704.7733,159.6158,714.7733,163.6158,704.7733,167.6158,708.7733,163.6158" style="stroke:#181818;stroke-width:1;"/><line style="stroke:#181818;stroke-width:1;" x1="297.729" x2="710.7733" y1="163.6158" y2="163.6158"/><text fill="#000000" font-family="sans-serif" font-size="13" lengthAdjust="spacing" textLength="91.5201" x="304.729" y="157.8068">playCard event</text><polygon fill="#181818" points="1187.7314,191.3218,1197.7314,195.3218,1187.7314,199.3218,1191.7314,195.3218" style="stroke:#181818;stroke-width:1;"/><line style="stroke:#181818;stroke-width:1;" x1="716.7733" x2="1193.7314" y1="195.3218" y2="195.3218"/><text fill="#000000" font-family="sans-serif" font-size="13" lengthAdjust="spacing" textLength="179.3612" x="723.7733" y="189.5128">get GAME#&lt;gameId&gt; / STATE</text><polygon fill="#181818" points="727.7733,223.0278,717.7733,227.0278,727.7733,231.0278,723.7733,227.0278" style="stroke:#181818;stroke-width:1;"/><line style="stroke:#181818;stroke-width:1;stroke-dasharray:2.0,2.0;" x1="721.7733" x2="1198.7314" y1="227.0278" y2="227.0278"/><text fill="#000000" font-family="sans-serif" font-size="13" lengthAdjust="spacing" textLength="67.392" x="733.7733" y="221.2188">GameState</text><polygon fill="#181818" points="1087.2357,254.7338,1097.2357,258.7338,1087.2357,262.7338,1091.2357,258.7338" style="stroke:#181818;stroke-width:1;"/><line style="stroke:#181818;stroke-width:1;" x1="716.7733" x2="1093.2357" y1="258.7338" y2="258.7338"/><text fill="#000000" font-family="sans-serif" font-size="13" lengthAdjust="spacing" textLength="164.3851" x="723.7733" y="252.9248">play_card(state, cardIndex)</text><path d="M229.3311,273.7338 L291.7901,273.7338 L291.7901,283.4398 L281.7901,293.4398 L229.3311,293.4398 L229.3311,273.7338 " fill="#EEEEEE" style="stroke:#000000;stroke-width:1.5;"/><rect fill="none" height="324.0421" style="stroke:#000000;stroke-width:1.5;" width="1024.7731" x="229.3311" y="273.7338"/><text fill="#000000" font-family="sans-serif" font-size="13" font-weight="bold" lengthAdjust="spacing" textLength="17.459" x="244.3311" y="288.6308">alt</text><text fill="#000000" font-family="sans-serif" font-size="11" font-weight="bold" lengthAdjust="spacing" textLength="104.1143" x="306.7901" y="287.4927">[insufficient mana]</text><polygon fill="#181818" points="727.7733,313.1459,717.7733,317.1459,727.7733,321.1459,723.7733,317.1459" style="stroke:#181818;stroke-width:1;"/><line style="stroke:#181818;stroke-width:1;stroke-dasharray:2.0,2.0;" x1="721.7733" x2="1098.2357" y1="317.1459" y2="317.1459"/><text fill="#000000" font-family="sans-serif" font-size="13" lengthAdjust="spacing" textLength="208.2472" x="733.7733" y="311.3369">RuleViolation("not enough mana")</text><polygon fill="#181818" points="308.729,344.8519,298.729,348.8519,308.729,352.8519,304.729,348.8519" style="stroke:#181818;stroke-width:1;"/><line style="stroke:#181818;stroke-width:1;" x1="302.729" x2="715.7733" y1="348.8519" y2="348.8519"/><text fill="#000000" font-family="sans-serif" font-size="13" lengthAdjust="spacing" textLength="349.7003" x="314.729" y="343.0429">postToConnection(player) &#8594; {"error":"not enough mana"}</text><line style="stroke:#000000;stroke-width:1;stroke-dasharray:2.0,2.0;" x1="229.3311" x2="1254.1042" y1="357.8519" y2="357.8519"/><text fill="#000000" font-family="sans-serif" font-size="11" font-weight="bold" lengthAdjust="spacing" textLength="59.9386" x="234.3311" y="369.6108">[valid play]</text><polygon fill="#181818" points="727.7733,393.5398,717.7733,397.5398,727.7733,401.5398,723.7733,397.5398" style="stroke:#181818;stroke-width:1;"/><line style="stroke:#181818;stroke-width:1;stroke-dasharray:2.0,2.0;" x1="721.7733" x2="1098.2357" y1="397.5398" y2="397.5398"/><text fill="#000000" font-family="sans-serif" font-size="13" lengthAdjust="spacing" textLength="358.4623" x="733.7733" y="391.7308">new GameState (mana reduced, opponent health reduced)</text><polygon fill="#181818" points="1187.7314,425.2458,1197.7314,429.2458,1187.7314,433.2458,1191.7314,429.2458" style="stroke:#181818;stroke-width:1;"/><line style="stroke:#181818;stroke-width:1;" x1="716.7733" x2="1193.7314" y1="429.2458" y2="429.2458"/><text fill="#000000" font-family="sans-serif" font-size="13" lengthAdjust="spacing" textLength="287.5992" x="723.7733" y="423.4368">put GAME#&lt;gameId&gt; / STATE (new GameState)</text><polygon fill="#181818" points="308.729,456.9518,298.729,460.9518,308.729,464.9518,304.729,460.9518" style="stroke:#181818;stroke-width:1;"/><line style="stroke:#181818;stroke-width:1;" x1="302.729" x2="715.7733" y1="460.9518" y2="460.9518"/><text fill="#000000" font-family="sans-serif" font-size="13" lengthAdjust="spacing" textLength="285.5583" x="314.729" y="455.1428">postToConnection(player1) &#8594; {"gameState": ...}</text><polygon fill="#181818" points="308.729,488.6578,298.729,492.6578,308.729,496.6578,304.729,492.6578" style="stroke:#181818;stroke-width:1;"/><line style="stroke:#181818;stroke-width:1;" x1="302.729" x2="715.7733" y1="492.6578" y2="492.6578"/><text fill="#000000" font-family="sans-serif" font-size="13" lengthAdjust="spacing" textLength="285.5583" x="314.729" y="486.8488">postToConnection(player2) &#8594; {"gameState": ...}</text><path d="M239.3311,507.6578 L301.7901,507.6578 L301.7901,517.3639 L291.7901,527.3639 L239.3311,527.3639 L239.3311,507.6578 " fill="#EEEEEE" style="stroke:#000000;stroke-width:1.5;"/><rect fill="none" height="83.118" style="stroke:#000000;stroke-width:1.5;" width="552.066" x="239.3311" y="507.6578"/><text fill="#000000" font-family="sans-serif" font-size="13" font-weight="bold" lengthAdjust="spacing" textLength="17.459" x="254.3311" y="522.5549">alt</text><text fill="#000000" font-family="sans-serif" font-size="11" font-weight="bold" lengthAdjust="spacing" textLength="123.7381" x="316.7901" y="521.4167">[opponent health &lt;= 0]</text><polygon fill="#181818" points="308.729,547.0699,298.729,551.0699,308.729,555.0699,304.729,551.0699" style="stroke:#181818;stroke-width:1;"/><line style="stroke:#181818;stroke-width:1;" x1="302.729" x2="715.7733" y1="551.0699" y2="551.0699"/><text fill="#000000" font-family="sans-serif" font-size="13" lengthAdjust="spacing" textLength="395.0444" x="314.729" y="545.2609">postToConnection(player1) &#8594; {"status":"game_over", "winner":...}</text><polygon fill="#181818" points="308.729,578.7759,298.729,582.7759,308.729,586.7759,304.729,582.7759" style="stroke:#181818;stroke-width:1;"/><line style="stroke:#181818;stroke-width:1;" x1="302.729" x2="715.7733" y1="582.7759" y2="582.7759"/><text fill="#000000" font-family="sans-serif" font-size="13" lengthAdjust="spacing" textLength="395.0444" x="314.729" y="576.9669">postToConnection(player2) &#8594; {"status":"game_over", "winner":...}</text><!--SRC=[dLBDQjj04BxlKmpRYmoEs_Weqe3hfCQ7G8XDUoc4YJIH5zQxosfbrnHVym1zn3v9PrTI4eK6cXo49EQRxsytgA09LWKPzCh2D8ThZGUOeo-5SEY3AfH34q1-fpkOQqKc_30P5a7j21nZoOyaO0r5cWrtPjTBM62WFHuI1fsgzaD8b8jgNnl3dDOadCRjNOb3u0At13UDfZf1VFmQ8YuE1hVsuakQb-b7YDOMd9otuf33BucjKYvT9ox780j-Bqr9FsK-FOeMp5kj5LxhiK2xc5Dq0uQqKWofAC1YTdNvuQnYiylo73x2QZrRNueESlASC0PQ1MxdELUArQdTHajP7I5ZUBGt4W9r06NgvlwUiyTqMpGee5iUYCJ2lYchCIREfB41oDYcsgGTEUAj9_6-8MVhiBPpQmobfhBkdE7Fms-kZxotdjjxINOKf6k27MfLfW3_jcHe_vGTihWAdigce78CrZbhOgGDSSfDFnZwV2pSDQyK3jb0vKqnJ_kSLRykSvXC9iUta4nV9M6MU7ulWvvzXayyUe_FU4EQcWyaQjtQ7Vbud_UAyNnCdVFtUFylOZAbuESl]--></g></svg>
