<svg xmlns="http://www.w3.org/2000/svg" xmlns:xlink="http://www.w3.org/1999/xlink" contentStyleType="text/css" height="684px" preserveAspectRatio="none" style="width:1044px;height:684px;background:#FFFFFF;" version="1.1" viewBox="0 0 1044 684" width="1044px" zoomAndPan="magnify"><title>Scenario 3: End Turn</title><defs/><g><text fill="#000000" font-family="sans-serif" font-size="14" font-weight="bold" lengthAdjust="spacing" textLength="141.8055" x="449.9709" y="29.9659">Scenario 3: End Turn</text><rect fill="none" height="83.118" style="stroke:#000000;stroke-width:1.5;" width="550.939" x="147.2781" y="526.794"/><line style="stroke:#181818;stroke-width:0.5;stroke-dasharray:5.0,5.0;" x1="57" x2="57" y1="98.2038" y2="626.912"/><line style="stroke:#181818;stroke-width:0.5;stroke-dasharray:5.0,5.0;" x1="205.2781" x2="205.2781" y1="98.2038" y2="626.912"/><line style="stroke:#181818;stroke-width:0.5;stroke-dasharray:5.0,5.0;" x1="624.2235" x2="624.2235" y1="98.2038" y2="626.912"/><line style="stroke:#181818;stroke-width:0.5;stroke-dasharray:5.0,5.0;" x1="744.9535" x2="744.9535" y1="98.2038" y2="626.912"/><line style="stroke:#181818;stroke-width:0.5;stroke-dasharray:5.0,5.0;" x1="935.9467" x2="935.9467" y1="98.2038" y2="626.912"/><rect fill="#E2E2F0" height="52.1358" rx="2.5" ry="2.5" style="stroke:#181818;stroke-width:0.5;" width="105.1816" x="5" y="45.0679"/><text fill="#000000" font-family="sans-serif" font-size="14" lengthAdjust="spacing" textLength="70.8397" x="22.171" y="67.0339">Web Client</text><text fill="#000000" font-family="sans-serif" font-size="14" lengthAdjust="spacing" textLength="91.1816" x="12" y="86.1018">(active player)</text><rect fill="#E2E2F0" height="52.1358" rx="2.5" ry="2.5" style="stroke:#181818;stroke-width:0.5;" width="105.1816" x="5" y="625.912"/><text fill="#000000" font-family="sans-serif" font-size="14" lengthAdjust="spacing" textLength="70.8397" x="22.171" y="647.878">Web Client</text><text fill="#000000" font-family="sans-serif" font-size="14" lengthAdjust="spacing" textLength="91.1816" x="12" y="666.9459">(active player)</text><rect fill="#E2E2F0" height="33.0679" rx="2.5" ry="2.5" style="stroke:#181818;stroke-width:0.5;" width="96.7957" x="157.2781" y="64.1358"/><text fill="#000000" font-family="sans-serif" font-size="14" lengthAdjust="spacing" textLength="82.7957" x="164.2781" y="86.1018">API Gateway</text><rect fill="#E2E2F0" height="33.0679" rx="2.5" ry="2.5" style="stroke:#181818;stroke-width:0.5;" width="96.7957" x="157.2781" y="625.912"/><text fill="#000000" font-family="sans-serif" font-size="14" lengthAdjust="spacing" textLength="82.7957" x="164.2781" y="647.878">API Gateway</text><rect fill="#E2E2F0" height="33.0679" rx="2.5" ry="2.5" style="stroke:#181818;stroke-width:0.5;" width="126.9935" x="561.2235" y="64.1358"/><text fill="#000000" font-family="sans-serif" font-size="14" lengthAdjust="spacing" textLength="112.9935" x="568.2235" y="86.1018">EndTurnFunction</text><rect fill="#E2E2F0" height="33.0679" rx="2.5" ry="2.5" style="stroke:#181818;stroke-width:0.5;" width="126.9935" x="561.2235" y="625.912"/><text fill="#000000" font-family="sans-serif" font-size="14" lengthAdjust="spacing" textLength="112.9935" x="568.2235" y="647.878">EndTurnFunction</text><rect fill="#E2E2F0" height="33.0679" rx="2.5" ry="2.5" style="stroke:#181818;stroke-width:0.5;" width="92.2457" x="698.9535" y="64.1358"/><text fill="#000000" font-family="sans-serif" font-size="14" lengthAdjust="spacing" textLength="78.2457" x="705.9535" y="86.1018">Game Rules</text><rect fill="#E2E2F0" height="33.0679" rx="2.5" ry="2.5" style="stroke:#181818;stroke-width:0.5;" width="92.2457" x="698.9535" y="625.912"/><text fill="#000000" font-family="sans-serif" font-size="14" lengthAdjust="spacing" textLength="78.2457" x="705.9535" y="647.878">Game Rules</text><rect fill="#E2E2F0" height="33.0679" rx="2.5" ry="2.5" style="stroke:#181818;stroke-width:0.5;" width="88.7457" x="891.9467" y="64.1358"/><text fill="#000000" font-family="sans-serif" font-size="14" lengthAdjust="spacing" textLength="74.7457" x="898.9467" y="86.1018">DynamoDB</text><rect fill="#E2E2F0" height="33.0679" rx="2.5" ry="2.5" style="stroke:#181818;stroke-width:0.5;" width="88.7457" x="891.9467" y="625.912"/><text fill="#000000" font-family="sans-serif" font-size="14" lengthAdjust="spacing" textLength="74.7457" x="898.9467" y="647.878">DynamoDB</text><polygon fill="#181818" points="193.6759,127.9098,203.6759,131.9098,193.6759,135.9098,197.6759,131.9098" style="stroke:#181818;stroke-width:1;"/><line style="stroke:#181818;stroke-width:1;" x1="57.5908" x2="199.6759" y1="131.9098" y2="131.9098"/><text fill="#000000" font-family="sans-serif" font-size="13" lengthAdjust="spacing" textLength="124.0851" x="64.5908" y="126.1008">{"action":"endTurn"}</text><polygon fill="#181818" points="612.7203,159.6158,622.7203,163.6158,612.7203,167.6158,616.7203,163.6158" style="stroke:#181818;stroke-width:1;"/><line style="stroke:#181818;stroke-width:1;" x1="205.6759" x2="618.7203" y1="163.6158" y2="163.6158"/><text fill="#000000" font-family="sans-serif" font-size="13" lengthAdjust="spacing" textLength="89.4011" x="212.6759" y="157.8068">endTurn event</text><polygon fill="#181818" points="924.3195,191.3218,934.3195,195.3218,924.3195,199.3218,928.3195,195.3218" style="stroke:#181818;stroke-width:1;"/><line style="stroke:#181818;stroke-width:1;" x1="624.7203" x2="930.3195" y1="195.3218" y2="195.3218"/><text fill="#000000" font-family="sans-serif" font-size="13" lengthAdjust="spacing" textLength="179.3612" x="631.7203" y="189.5128">get GAME#&lt;gameId&gt; / STATE</text><polygon fill="#181818" points="635.7203,223.0278,625.7203,227.0278,635.7203,231.0278,631.7203,227.0278" style="stroke:#181818;stroke-width:1;"/><line style="stroke:#181818;stroke-width:1;stroke-dasharray:2.0,2.0;" x1="629.7203" x2="935.3195" y1="227.0278" y2="227.0278"/><text fill="#000000" font-family="sans-serif" font-size="13" lengthAdjust="spacing" textLength="67.392" x="641.7203" y="221.2188">GameState</text><polygon fill="#181818" points="733.0764,254.7338,743.0764,258.7338,733.0764,262.7338,737.0764,258.7338" style="stroke:#181818;stroke-width:1;"/><line style="stroke:#181818;stroke-width:1;" x1="624.7203" x2="739.0764" y1="258.7338" y2="258.7338"/><text fill="#000000" font-family="sans-serif" font-size="13" lengthAdjust="spacing" textLength="93.3011" x="631.7203" y="252.9248">end_turn(state)</text><path d="M750,271.7338 L750,387.7338 L1037,387.7338 L1037,281.7338 L1027,271.7338 L750,271.7338 " fill="#FEFFDD" style="stroke:#181818;stroke-width:0.5;"/><path d="M1027,271.7338 L1027,281.7338 L1037,281.7338 L1027,271.7338 " fill="#FEFFDD" style="stroke:#181818;stroke-width:0.5;"/><text fill="#000000" font-family="sans-serif" font-size="13" lengthAdjust="spacing" textLength="266.7473" x="756" y="290.6308">1. Increment opponent mana slots (max 10)</text><text fill="#000000" font-family="sans-serif" font-size="13" lengthAdjust="spacing" textLength="193.2842" x="756" y="308.3369">2. Refill opponent mana to slots</text><text fill="#000000" font-family="sans-serif" font-size="13" lengthAdjust="spacing" textLength="161.2261" x="756" y="326.0429">3. Draw card for opponent</text><text fill="#000000" font-family="sans-serif" font-size="13" lengthAdjust="spacing" textLength="219.1282" x="766.14" y="343.7489">- empty deck &#8594; Bleeding Out (-1 HP)</text><text fill="#000000" font-family="sans-serif" font-size="13" lengthAdjust="spacing" textLength="208.8322" x="766.14" y="361.4549">- full hand (5) &#8594; Overload (discard)</text><text fill="#000000" font-family="sans-serif" font-size="13" lengthAdjust="spacing" textLength="134.2251" x="756" y="379.1609">4. Switch active player</text><polygon fill="#181818" points="635.7203,412.6759,625.7203,416.6759,635.7203,420.6759,631.7203,416.6759" style="stroke:#181818;stroke-width:1;"/><line style="stroke:#181818;stroke-width:1;stroke-dasharray:2.0,2.0;" x1="629.7203" x2="744.0764" y1="416.6759" y2="416.6759"/><text fill="#000000" font-family="sans-serif" font-size="13" lengthAdjust="spacing" textLength="96.3561" x="641.7203" y="410.8669">new GameState</text><polygon fill="#181818" points="924.3195,444.382,934.3195,448.382,924.3195,452.382,928.3195,448.382" style="stroke:#181818;stroke-width:1;"/><line style="stroke:#181818;stroke-width:1;" x1="624.7203" x2="930.3195" y1="448.382" y2="448.382"/><text fill="#000000" font-family="sans-serif" font-size="13" lengthAdjust="spacing" textLength="287.5992" x="631.7203" y="442.573">put GAME#&lt;gameId&gt; / STATE (new GameState)</text><polygon fill="#181818" points="216.6759,476.088,206.6759,480.088,216.6759,484.088,212.6759,480.088" style="stroke:#181818;stroke-width:1;"/><line style="stroke:#181818;stroke-width:1;" x1="210.6759" x2="623.7203" y1="480.088" y2="480.088"/><text fill="#000000" font-family="sans-serif" font-size="13" lengthAdjust="spacing" textLength="285.5583" x="222.6759" y="474.279">postToConnection(player1) &#8594; {"gameState": ...}</text><polygon fill="#181818" points="216.6759,507.794,206.6759,511.794,216.6759,515.794,212.6759,511.794" style="stroke:#181818;stroke-width:1;"/><line style="stroke:#181818;stroke-width:1;" x1="210.6759" x2="623.7203" y1="511.794" y2="511.794"/><text fill="#000000" font-family="sans-serif" font-size="13" lengthAdjust="spacing" textLength="285.5583" x="222.6759" y="505.985">postToConnection(player2) &#8594; {"gameState": ...}</text><path d="M147.2781,526.794 L209.7371,526.794 L209.7371,536.5 L199.7371,546.5 L147.2781,546.5 L147.2781,526.794 " fill="#EEEEEE" style="stroke:#000000;stroke-width:1.5;"/><rect fill="none" height="83.118" style="stroke:#000000;stroke-width:1.5;" width="550.939" x="147.2781" y="526.794"/><text fill="#000000" font-family="sans-serif" font-size="13" font-weight="bold" lengthAdjust="spacing" textLength="17.459" x="162.2781" y="541.691">alt</text><text fill="#000000" font-family="sans-serif" font-size="11" font-weight="bold" lengthAdjust="spacing" textLength="282.2139" x="224.7371" y="540.5529">[opponent health &lt;= 0 (Bleeding Out caused death)]</text><polygon fill="#181818" points="216.6759,566.206,206.6759,570.206,216.6759,574.206,212.6759,570.206" style="stroke:#181818;stroke-width:1;"/><line style="stroke:#181818;stroke-width:1;" x1="210.6759" x2="623.7203" y1="570.206" y2="570.206"/><text fill="#000000" font-family="sans-serif" font-size="13" lengthAdjust="spacing" textLength="395.0444" x="222.6759" y="564.397">postToConnection(player1) &#8594; {"status":"game_over", "winner":...}</text><polygon fill="#181818" points="216.6759,597.912,206.6759,601.912,216.6759,605.912,212.6759,601.912" style="stroke:#181818;stroke-width:1;"/><line style="stroke:#181818;stroke-width:1;" x1="210.6759" x2="623.7203" y1="601.912" y2="601.912"/><text fill="#000000" font-family="sans-serif" font-size="13" lengthAdjust="spacing" textLength="395.0444" x="222.6759" y="596.103">postToConnection(player2) &#8594; {"status":"game_over", "winner":...}</text><!--SRC=[bPBDQjj058NtUeg3kf6WLcEdtPWquCIkcqL9Y0tT5CADT2qDbMR4Q6JLX6px07t4FabdD7QmIWErLgEvtvnp_umm9MELiYGj5CwdMCWCwrRB8AX96v6AcgH1-9KVSLqAbkQRZ2WrOikeIzgnZaDGWxIF3T_Cxcwm9CCTxNg6Qf5tGyIwERDFhRIIIlPOITLZHaDkIHNZlYsvwH7jJaDYlfDKgVbL7y_wdo3mMM5qwRqnnLD8tcaQilSEdmCVj9ItjjW-1jwwgeBzlIMyiYLoDbZElYpUNEGsjvli4k-mMi_MYs2FZ8xrNFuhOtjnhDLNuSqUZ7MB6aV4WLI6eKLU6AZDlbPWdE16ffehLv6gQoNTeI99Q4fb6aGL_S3uBBRi9C4zRqHP_WKQvLcBd2UOQ-gGaiwmKVg5j37xZS1LRNR8EFsEtpz_uQfapeJCSTiQHACnFj_51tJJMgU2xEP47-AUljsoBXNPYqmqpiAnxnEiEc7I0eC52cpzS3K7lY63nadk_jsybq7KxIk3G3Hu71yzFcn3hHgpLjTAIkwt8l8PZNqHJs5-U1nEaIJ9y_zBJ5wL2AWycb_1zhV0nKUS8HhqEAMsuSmEW4pXkdTwzcwTsiPkkilXGTcHX6yHTiBoEfpsoPmWEpb1raxq3m00]--></g></svg>
